<svg width="56" height="56" viewBox="0 0 56 56" fill="none" xmlns="http://www.w3.org/2000/svg">
<rect width="56" height="56" rx="21" fill="#018857" fill-opacity="0.05"/>
<rect x="0.5" y="0.5" width="55" height="55" rx="20.5" stroke="url(#paint0_radial_168_325)" stroke-opacity="0.39"/>
<path d="M37 26H19M32 18V22M24 18V22M25 32L27 34L31.5 29.5M23.8 38H32.2C33.8802 38 34.7202 38 35.362 37.673C35.9265 37.3854 36.3854 36.9265 36.673 36.362C37 35.7202 37 34.8802 37 33.2V24.8C37 23.1198 37 22.2798 36.673 21.638C36.3854 21.0735 35.9265 20.6146 35.362 20.327C34.7202 20 33.8802 20 32.2 20H23.8C22.1198 20 21.2798 20 20.638 20.327C20.0735 20.6146 19.6146 21.0735 19.327 21.638C19 22.2798 19 23.1198 19 24.8V33.2C19 34.8802 19 35.7202 19.327 36.362C19.6146 36.9265 20.0735 37.3854 20.638 37.673C21.2798 38 22.1198 38 23.8 38Z" stroke="#018857" stroke-width="2" stroke-linecap="round" stroke-linejoin="round"/>
<defs>
<radialGradient id="paint0_radial_168_325" cx="0" cy="0" r="1" gradientUnits="userSpaceOnUse" gradientTransform="translate(51.3333 -7.58334) rotate(121.329) scale(62.8269)">
<stop stop-color="#018857"/>
<stop offset="1" stop-color="#018857" stop-opacity="0"/>
</radialGradient>
</defs>
</svg>
