<svg width="16" height="16" viewBox="0 0 16 16" fill="none" xmlns="http://www.w3.org/2000/svg">
<path d="M9.33335 1.51303V4.26673C9.33335 4.64009 9.33335 4.82678 9.40602 4.96938C9.46993 5.09483 9.57192 5.19681 9.69736 5.26073C9.83997 5.33339 10.0267 5.33339 10.4 5.33339H13.1537M10.6667 8.66668H5.33335M10.6667 11.3333H5.33335M6.66669 6.00001H5.33335M9.33335 1.33334H5.86669C4.74658 1.33334 4.18653 1.33334 3.75871 1.55133C3.38238 1.74308 3.07642 2.04904 2.88467 2.42536C2.66669 2.85319 2.66669 3.41324 2.66669 4.53334V11.4667C2.66669 12.5868 2.66669 13.1468 2.88467 13.5747C3.07642 13.951 3.38238 14.2569 3.75871 14.4487C4.18653 14.6667 4.74658 14.6667 5.86669 14.6667H10.1334C11.2535 14.6667 11.8135 14.6667 12.2413 14.4487C12.6177 14.2569 12.9236 13.951 13.1154 13.5747C13.3334 13.1468 13.3334 12.5868 13.3334 11.4667V5.33334L9.33335 1.33334Z" stroke="#008052" stroke-width="1.33333" stroke-linecap="round" stroke-linejoin="round"/>
</svg>
