<svg width="115" height="42" viewBox="0 0 115 42" fill="none" xmlns="http://www.w3.org/2000/svg">
<path d="M3.85498 15.7412V19.2749H5.46123C7.70998 19.2749 10.6012 17.6687 10.6012 15.7412V13.8137H3.53374L3.85498 15.7412ZM2.89124 30.8399V34.6949H12.85V34.3737C8.99499 34.0524 4.81874 31.8037 2.89124 30.8399ZM25.3787 9.95868C35.98 5.46118 37.9075 4.17618 49.7937 4.17618C58.1462 4.17618 63.9287 7.06743 70.0325 10.6012C69.0687 11.5649 68.4262 12.8499 68.4262 14.1349L28.9125 12.5287C28.9125 12.8499 26.3425 12.5287 25.3787 9.95868ZM70.675 11.5649C70.0325 12.5287 69.7112 13.4924 69.7112 14.4562C69.7112 14.7774 69.7112 15.0987 70.0325 15.4199C70.3537 15.7412 70.675 15.7412 70.9962 15.7412H73.8875C74.53 15.7412 74.8512 15.4199 75.1725 15.0987C75.4937 14.7774 75.4937 14.1349 75.1725 13.8137C74.53 12.8499 73.5662 11.8862 72.2812 11.5649C71.6387 11.2437 71.3175 11.2437 70.675 11.5649Z" fill="#989898"/>
<path d="M73.245 17.3476C72.9237 17.3476 72.6025 17.3476 72.6025 17.0263L70.9962 14.7776C70.675 14.4563 70.675 13.8138 71.3175 13.4926C71.6387 13.1713 72.2812 13.1713 72.6025 13.8138L74.2087 16.0626C74.53 16.3838 74.53 17.0263 73.8875 17.3476C73.5662 17.0263 73.5662 17.3476 73.245 17.3476Z" fill="#989898"/>
<path d="M13.4925 35.3375C7.38874 35.3375 0.96374 31.1613 0.64249 31.1613L0 30.84V22.1663L0.321245 21.845C0.963745 21.2025 2.24874 19.5963 2.24874 18.6325L2.57 9.95875L11.8862 8.995C27.6275 1.60625 33.41 0 49.4725 0C60.0738 0 66.4987 3.855 74.2087 8.03125C75.815 8.995 77.7425 9.95875 79.67 11.2438C81.5975 11.2438 92.1987 11.565 100.23 13.8137C107.94 15.7413 112.759 18.3113 113.08 20.8813L114.044 34.3737L112.759 34.695C110.51 35.3375 108.582 35.6588 103.764 35.6588H102.8V32.7675H103.764C107.619 32.7675 109.225 32.4463 110.831 32.125V31.4825L110.189 21.2025C109.867 20.8813 107.298 18.6325 99.2663 16.705C90.5925 14.4563 79.3487 14.135 79.0275 14.135L78.385 13.8137C76.1363 12.5287 74.2087 11.565 72.6025 10.6012C64.8925 6.10375 59.11 2.89125 49.1512 2.89125C33.7312 2.89125 27.9487 4.4975 12.5287 11.565H12.2075L5.14 12.5288L4.81875 18.6325C4.81875 20.56 3.2125 22.4875 2.57 23.13V28.9125C4.17625 29.8763 9.31624 32.4463 13.4925 32.4463H15.7412V35.3375H13.4925ZM84.1675 35.3375H32.125V32.4463H84.1675V35.3375Z" fill="#989898"/>
<path d="M93.4837 18.9538C96.6962 18.9538 99.5875 20.2388 101.836 22.4876C104.085 24.7363 105.37 27.6276 105.37 30.8401V35.6588H101.194C101.836 34.3738 102.479 33.0888 102.479 31.4826C102.479 26.9851 98.6237 23.1301 94.1262 23.1301C89.6287 23.1301 85.7737 26.9851 85.7737 31.4826C85.7737 33.0888 86.095 34.3738 87.0587 35.6588H82.8824V30.8401C82.8824 27.6276 84.1675 24.7363 86.4162 22.4876C87.38 20.2388 90.2712 18.9538 93.4837 18.9538Z" fill="#989898"/>
<path d="M86.4163 24.0937C88.3438 22.1662 90.5925 21.2024 93.4838 21.2024C96.0538 21.2024 98.6238 22.1662 100.551 24.0937C102.479 26.0212 103.443 28.2699 103.443 31.1612C103.443 33.7312 102.479 36.3012 100.551 38.2287C98.6238 40.1562 96.375 41.1199 93.4838 41.1199C90.9138 41.1199 88.3438 40.1562 86.4163 38.2287C84.4888 36.3012 83.525 34.0524 83.525 31.1612C83.525 28.5912 84.81 26.0212 86.4163 24.0937ZM93.4838 24.4149C89.6288 24.4149 86.7375 27.6274 86.7375 31.1612C86.7375 34.6949 89.95 37.9074 93.4838 37.9074C97.3388 37.9074 100.23 34.6949 100.23 31.1612C100.23 27.6274 97.3388 24.4149 93.4838 24.4149Z" fill="#989898"/>
<path d="M93.4837 33.7313C94.9031 33.7313 96.0537 32.5807 96.0537 31.1613C96.0537 29.7419 94.9031 28.5913 93.4837 28.5913C92.0643 28.5913 90.9137 29.7419 90.9137 31.1613C90.9137 32.5807 92.0643 33.7313 93.4837 33.7313Z" fill="#989898"/>
<path d="M39.835 27.3063V29.5551H78.385L39.835 27.3063ZM102.479 18.9538L105.049 23.7726C106.012 23.1301 107.297 22.8088 108.261 22.8088H112.437V22.4876C112.437 22.1663 111.152 19.9176 109.546 18.9538H102.479ZM109.225 27.6276H112.437V29.5551H109.225V27.6276Z" fill="#989898"/>
<path d="M108.583 26.985H107.298C106.655 26.985 106.334 27.3062 106.334 27.9487V28.9125C106.334 29.555 106.655 29.8762 107.298 29.8762H108.583C109.225 29.8762 109.546 29.555 109.546 28.9125V27.9487C109.546 27.3062 109.225 26.985 108.583 26.985ZM41.4413 16.0625H47.8663V17.99H41.4413V16.0625ZM24.0938 18.9537C27.3063 18.9537 30.1975 20.2387 32.4463 22.4875C34.695 24.7362 35.98 27.6275 35.98 30.84V35.6587H31.1613C31.8038 34.3737 32.4463 33.0887 32.4463 31.4825C32.4463 26.985 28.5913 23.13 24.0938 23.13C19.5963 23.13 15.7413 26.985 15.7413 31.4825C15.7413 33.0887 16.0625 34.3737 17.0263 35.6587H12.85V30.84C12.85 27.6275 14.135 24.7362 16.3838 22.4875C17.99 20.2387 20.8813 18.9537 24.0938 18.9537Z" fill="#989898"/>
<path d="M17.0263 24.0937C18.9538 22.1662 21.2025 21.2024 24.0938 21.2024C26.6638 21.2024 29.2338 22.1662 31.1613 24.0937C33.0888 26.0212 34.0525 28.2699 34.0525 31.1612C34.0525 33.7312 33.0888 36.3012 31.1613 38.2287C29.2338 40.1562 26.985 41.1199 24.0938 41.1199C21.5238 41.1199 18.9538 40.1562 17.0263 38.2287C15.0988 36.3012 14.135 34.0524 14.135 31.1612C14.135 28.5912 15.0988 26.0212 17.0263 24.0937ZM24.0938 24.4149C20.2388 24.4149 17.3475 27.6274 17.3475 31.1612C17.3475 34.6949 20.56 37.9074 24.0938 37.9074C27.9488 37.9074 30.84 34.6949 30.84 31.1612C30.84 27.6274 27.9488 24.4149 24.0938 24.4149Z" fill="#989898"/>
<path d="M24.0938 33.7313C25.5131 33.7313 26.6637 32.5807 26.6637 31.1613C26.6637 29.7419 25.5131 28.5913 24.0938 28.5913C22.6744 28.5913 21.5237 29.7419 21.5237 31.1613C21.5237 32.5807 22.6744 33.7313 24.0938 33.7313Z" fill="#989898"/>
</svg>
