<svg width="169" height="169" viewBox="0 0 169 169" fill="none" xmlns="http://www.w3.org/2000/svg">
<g clip-path="url(#clip0_356_1816)">
<path d="M169 0H0V177H169V0Z" fill="url(#paint0_linear_356_1816)" stroke="#BAFFE6" stroke-width="0.67" stroke-miterlimit="10"/>
<path d="M105.191 75.2331C96.8106 75.2331 88.3006 74.8762 80.3306 72.5459C72.5106 70.2681 65.3306 65.8489 58.9306 60.7369C54.7306 57.4094 50.9306 54.7537 45.4806 55.1525C40.1579 55.4623 35.071 57.5599 30.9706 61.1358C24.0406 67.4969 25.0906 79.2639 27.8506 87.5355C32.0206 99.9953 44.6706 108.655 55.4406 114.292C67.8706 120.811 81.5206 124.569 95.2206 126.773C107.221 128.694 122.631 130.079 133.031 121.86C142.591 114.303 145.211 97.0352 142.871 85.3836C142.299 81.9403 140.55 78.8346 137.951 76.6502C131.241 71.4962 121.231 74.9392 113.691 75.1071C110.891 75.2331 108.051 75.2331 105.191 75.2331Z" fill="#F1F1EF" fill-opacity="0.1"/>
<path d="M84.7002 147.2C104.975 147.2 121.41 146.124 121.41 144.797C121.41 143.469 104.975 142.393 84.7002 142.393C64.4259 142.393 47.9902 143.469 47.9902 144.797C47.9902 146.124 64.4259 147.2 84.7002 147.2Z" fill="#F1F1EF" fill-opacity="0.6"/>
<path d="M103.509 28.1848C104.051 28.1848 104.489 27.7243 104.489 27.1561C104.489 26.588 104.051 26.1274 103.509 26.1274C102.968 26.1274 102.529 26.588 102.529 27.1561C102.529 27.7243 102.968 28.1848 103.509 28.1848Z" fill="#F1F1EF"/>
<path d="M58.7202 128.02C59.2615 128.02 59.7002 127.559 59.7002 126.991C59.7002 126.423 59.2615 125.963 58.7202 125.963C58.179 125.963 57.7402 126.423 57.7402 126.991C57.7402 127.559 58.179 128.02 58.7202 128.02Z" fill="#F1F1EF"/>
<path d="M115.061 133.282V137.795" stroke="#BAFFE6" stroke-linecap="round" stroke-linejoin="round"/>
<path d="M112.9 135.537H117.21" stroke="#BAFFE6" stroke-linecap="round" stroke-linejoin="round"/>
<path d="M83.1191 32.0688C72.5105 32.0688 62.3363 36.4925 54.8349 44.3667C47.3334 52.2409 43.1191 62.9206 43.1191 74.0564C43.1191 104.875 83.1191 133.731 83.1191 133.731C83.1191 133.731 123.119 105.316 123.119 74.0564C123.119 62.9206 118.905 52.2409 111.403 44.3667C103.902 36.4925 93.7278 32.0688 83.1191 32.0688ZM83.1191 89.8018C80.0038 89.8018 76.9584 88.8326 74.3675 87.0166C71.7767 85.2007 69.7567 82.6195 68.5627 79.5991C67.3687 76.5787 67.0542 73.2546 67.6591 70.0467C68.264 66.8388 69.761 63.891 71.9611 61.5758C74.1611 59.2605 76.9656 57.6816 80.0201 57.0386C83.0746 56.3955 86.2421 56.7171 89.1226 57.9628C92.003 59.2085 94.4671 61.3223 96.2037 64.0373C97.9402 66.7523 98.8712 69.9466 98.8791 73.2167C98.8765 77.6033 97.2152 81.8095 94.2602 84.9113C91.3052 88.0132 87.2981 89.757 83.1191 89.7598V89.8018Z" fill="white" stroke="#BABABA" stroke-opacity="0.2" stroke-linecap="round" stroke-linejoin="round"/>
<path d="M40.7988 39.8472V44.3608" stroke="#BAFFE6" stroke-linecap="round" stroke-linejoin="round"/>
<path d="M38.6406 42.1064H42.9506" stroke="#BAFFE6" stroke-linecap="round" stroke-linejoin="round"/>
<path d="M130.32 52.1318V56.6455" stroke="#BAFFE6" stroke-linecap="round" stroke-linejoin="round"/>
<path d="M128.16 54.387H132.47" stroke="#BAFFE6" stroke-linecap="round" stroke-linejoin="round"/>
<path d="M88.4305 67.0776L77.8105 78.2358" stroke="#F1F1EF" stroke-width="2" stroke-linecap="round" stroke-linejoin="round"/>
<path d="M77.8105 67.0776L88.4305 78.2358" stroke="#F1F1EF" stroke-width="2" stroke-linecap="round" stroke-linejoin="round"/>
</g>
<defs>
<linearGradient id="paint0_linear_356_1816" x1="84.9884" y1="48.4643" x2="84.9884" y2="177" gradientUnits="userSpaceOnUse">
<stop stop-color="#008857"/>
<stop offset="1" stop-color="#007148"/>
</linearGradient>
<clipPath id="clip0_356_1816">
<rect width="169" height="169" rx="84.5" fill="white"/>
</clipPath>
</defs>
</svg>
