<svg width="16" height="16" viewBox="0 0 16 16" fill="none" xmlns="http://www.w3.org/2000/svg">
<path d="M10.6666 4.66667C10.6666 4.04669 10.6666 3.7367 10.5985 3.48236C10.4136 2.79218 9.87447 2.25308 9.18428 2.06815C8.92995 2 8.61996 2 7.99998 2C7.38 2 7.07001 2 6.81568 2.06815C6.12549 2.25308 5.5864 2.79218 5.40146 3.48236C5.33331 3.7367 5.33331 4.04669 5.33331 4.66667M8.53331 11.6667H11.8C11.9867 11.6667 12.08 11.6667 12.1513 11.6303C12.214 11.5984 12.265 11.5474 12.297 11.4847C12.3333 11.4134 12.3333 11.32 12.3333 11.1333V9.53333C12.3333 9.34665 12.3333 9.25331 12.297 9.182C12.265 9.11928 12.214 9.06829 12.1513 9.03633C12.08 9 11.9867 9 11.8 9H8.53331C8.34663 9 8.25329 9 8.18198 9.03633C8.11926 9.06829 8.06827 9.11928 8.03631 9.182C7.99998 9.25331 7.99998 9.34665 7.99998 9.53333V11.1333C7.99998 11.32 7.99998 11.4134 8.03631 11.4847C8.06827 11.5474 8.11926 11.5984 8.18198 11.6303C8.25329 11.6667 8.34663 11.6667 8.53331 11.6667ZM4.53331 14H11.4666C12.5868 14 13.1468 14 13.5746 13.782C13.951 13.5903 14.2569 13.2843 14.4487 12.908C14.6666 12.4802 14.6666 11.9201 14.6666 10.8V7.86667C14.6666 6.74656 14.6666 6.18651 14.4487 5.75869C14.2569 5.38236 13.951 5.0764 13.5746 4.88465C13.1468 4.66667 12.5868 4.66667 11.4666 4.66667H4.53331C3.41321 4.66667 2.85316 4.66667 2.42533 4.88465C2.04901 5.0764 1.74305 5.38236 1.5513 5.75869C1.33331 6.18651 1.33331 6.74656 1.33331 7.86667V10.8C1.33331 11.9201 1.33331 12.4802 1.5513 12.908C1.74305 13.2843 2.04901 13.5903 2.42533 13.782C2.85316 14 3.41321 14 4.53331 14Z" stroke="#777777" stroke-width="1.33333" stroke-linecap="round" stroke-linejoin="round"/>
</svg>
