<svg width="16" height="16" viewBox="0 0 16 16" fill="none" xmlns="http://www.w3.org/2000/svg">
<g clip-path="url(#clip0_1_210)">
<path d="M2.0879 -0.0136715C2.13716 -0.0132826 2.13716 -0.0132826 2.18742 -0.0128857C2.73889 -0.000939038 3.20998 0.20945 3.6023 0.597168C3.99809 1.01677 4.2071 1.51069 4.20118 2.08789C4.20092 2.12073 4.20066 2.15358 4.2004 2.18742C4.18845 2.73888 3.97806 3.20997 3.59034 3.6023C3.36767 3.81233 3.04207 4.09375 2.71876 4.09375C2.71876 5.17656 2.71876 6.25938 2.71876 7.375C4.27595 7.375 5.83313 7.375 7.43751 7.375C7.43751 6.29219 7.43751 5.20938 7.43751 4.09375C7.37563 4.08344 7.31376 4.07313 7.25001 4.0625C6.72335 3.845 6.32924 3.42552 6.09705 2.90918C5.99972 2.63678 5.95212 2.38934 5.95509 2.09961C5.95535 2.06677 5.95561 2.03392 5.95587 2.00008C5.96782 1.44862 6.17821 0.977528 6.56593 0.585205C6.98553 0.189422 7.47945 -0.0195923 8.05665 -0.0136715C8.10591 -0.0132826 8.10591 -0.0132826 8.15617 -0.0128857C8.70763 -0.000939038 9.17873 0.20945 9.57105 0.597168C9.96684 1.01677 10.1759 1.51069 10.1699 2.08789C10.1697 2.12073 10.1694 2.15358 10.1691 2.18742C10.1572 2.73888 9.94681 3.20997 9.55909 3.6023C9.33642 3.81233 9.01082 4.09375 8.68751 4.09375C8.68751 5.17656 8.68751 6.25938 8.68751 7.375C10.2034 7.375 11.7194 7.375 13.2813 7.375C13.2813 6.29219 13.2813 5.20938 13.2813 4.09375C13.2194 4.08344 13.1575 4.07313 13.0938 4.0625C12.5671 3.845 12.173 3.42552 11.9408 2.90918C11.8435 2.63678 11.7959 2.38934 11.7988 2.09961C11.7991 2.06677 11.7994 2.03392 11.7996 2.00008C11.8116 1.44862 12.022 0.977528 12.4097 0.585205C12.8293 0.189422 13.3232 -0.0195923 13.9004 -0.0136715C13.9497 -0.0132826 13.9497 -0.0132826 13.9999 -0.0128857C14.5514 -0.000939038 15.0225 0.20945 15.4148 0.597168C15.8106 1.01677 16.0196 1.51069 16.0137 2.08789C16.0134 2.12073 16.0132 2.15358 16.0129 2.18742C16.0009 2.73888 15.7906 3.20997 15.4028 3.6023C15.1802 3.81233 14.8546 4.09375 14.5313 4.09375C14.5313 5.58906 14.5313 7.08437 14.5313 8.625C12.6028 8.625 10.6744 8.625 8.68751 8.625C8.68751 9.70781 8.68751 10.7906 8.68751 11.9062C8.74938 11.9166 8.81126 11.9269 8.87501 11.9375C9.40166 12.155 9.79578 12.5745 10.028 13.0908C10.1253 13.3632 10.1729 13.6107 10.1699 13.9004C10.1697 13.9332 10.1694 13.9661 10.1691 13.9999C10.1572 14.5514 9.94681 15.0225 9.55909 15.4148C9.13949 15.8106 8.64557 16.0196 8.06837 16.0137C8.03552 16.0134 8.00268 16.0132 7.96884 16.0129C7.41738 16.0009 6.94629 15.7906 6.55396 15.4028C6.15818 14.9832 5.94917 14.4893 5.95509 13.9121C5.95535 13.8793 5.95561 13.8464 5.95587 13.8126C5.96782 13.2611 6.17821 12.79 6.56593 12.3977C6.7886 12.1877 7.1142 11.9062 7.43751 11.9062C7.43751 10.8234 7.43751 9.74063 7.43751 8.625C5.88032 8.625 4.32313 8.625 2.71876 8.625C2.71876 9.70781 2.71876 10.7906 2.71876 11.9062C2.78063 11.9166 2.84251 11.9269 2.90626 11.9375C3.43291 12.155 3.82703 12.5745 4.05921 13.0908C4.15655 13.3632 4.20415 13.6107 4.20118 13.9004C4.20092 13.9332 4.20066 13.9661 4.2004 13.9999C4.18845 14.5514 3.97806 15.0225 3.59034 15.4148C3.17074 15.8106 2.67682 16.0196 2.09962 16.0137C2.06677 16.0134 2.03393 16.0132 2.00009 16.0129C1.44863 16.0009 0.977536 15.7906 0.585214 15.4028C0.18943 14.9832 -0.0195837 14.4893 -0.0136629 13.9121C-0.0134036 13.8793 -0.0131443 13.8464 -0.0128771 13.8126C-0.000930439 13.2611 0.209458 12.79 0.597177 12.3977C0.819849 12.1877 1.14545 11.9062 1.46876 11.9062C1.46876 9.32812 1.46876 6.75 1.46876 4.09375C1.40688 4.08344 1.34501 4.07313 1.28126 4.0625C0.754604 3.845 0.360489 3.42552 0.128305 2.90918C0.0309702 2.63678 -0.0166349 2.38934 -0.0136629 2.09961C-0.0134036 2.06677 -0.0131443 2.03392 -0.0128771 2.00008C-0.000930439 1.44862 0.209458 0.977528 0.597177 0.585205C1.01678 0.189422 1.5107 -0.0195923 2.0879 -0.0136715ZM1.45509 1.54297C1.2714 1.78701 1.24589 2.00965 1.28126 2.3125C1.36156 2.5791 1.52103 2.72971 1.75196 2.87109C1.9454 2.94418 2.19486 2.94198 2.39088 2.88245C2.45241 2.85285 2.50669 2.82046 2.56251 2.78125C2.59022 2.7632 2.61794 2.74516 2.64649 2.72656C2.8287 2.54928 2.91076 2.36018 2.91798 2.10742C2.91571 1.86338 2.86225 1.68807 2.69862 1.50501C2.47994 1.30311 2.27799 1.26127 1.98475 1.26843C1.76795 1.29375 1.60267 1.38312 1.45509 1.54297ZM7.42384 1.54297C7.24015 1.78701 7.21464 2.00965 7.25001 2.3125C7.33031 2.5791 7.48978 2.72971 7.72071 2.87109C7.91415 2.94418 8.16361 2.94198 8.35963 2.88245C8.42116 2.85285 8.47544 2.82046 8.53126 2.78125C8.55897 2.7632 8.58669 2.74516 8.61524 2.72656C8.79745 2.54928 8.87951 2.36018 8.88673 2.10742C8.88446 1.86338 8.831 1.68807 8.66737 1.50501C8.44869 1.30311 8.24674 1.26127 7.9535 1.26843C7.7367 1.29375 7.57142 1.38312 7.42384 1.54297ZM13.2676 1.54297C13.0839 1.78701 13.0584 2.00965 13.0938 2.3125C13.1741 2.5791 13.3335 2.72971 13.5645 2.87109C13.7579 2.94418 14.0074 2.94198 14.2034 2.88245C14.2649 2.85285 14.3192 2.82046 14.375 2.78125C14.4027 2.7632 14.4304 2.74516 14.459 2.72656C14.6412 2.54928 14.7233 2.36018 14.7305 2.10742C14.7282 1.86338 14.6747 1.68807 14.5111 1.50501C14.2924 1.30311 14.0905 1.26127 13.7972 1.26843C13.5805 1.29375 13.4152 1.38312 13.2676 1.54297ZM1.45509 13.3555C1.2714 13.5995 1.24589 13.8221 1.28126 14.125C1.36156 14.3916 1.52103 14.5422 1.75196 14.6836C1.9454 14.7567 2.19486 14.7545 2.39088 14.6949C2.45241 14.6653 2.50669 14.633 2.56251 14.5938C2.59022 14.5757 2.61794 14.5577 2.64649 14.5391C2.8287 14.3618 2.91076 14.1727 2.91798 13.9199C2.91571 13.6759 2.86225 13.5006 2.69862 13.3175C2.47994 13.1156 2.27799 13.0738 1.98475 13.0809C1.76795 13.1063 1.60267 13.1956 1.45509 13.3555ZM7.42384 13.3555C7.24015 13.5995 7.21464 13.8221 7.25001 14.125C7.33031 14.3916 7.48978 14.5422 7.72071 14.6836C7.91415 14.7567 8.16361 14.7545 8.35963 14.6949C8.42116 14.6653 8.47544 14.633 8.53126 14.5938C8.55897 14.5757 8.58669 14.5577 8.61524 14.5391C8.79745 14.3618 8.87951 14.1727 8.88673 13.9199C8.88446 13.6759 8.831 13.5006 8.66737 13.3175C8.44869 13.1156 8.24674 13.0738 7.9535 13.0809C7.7367 13.1063 7.57142 13.1956 7.42384 13.3555Z" fill="#777777"/>
</g>
<defs>
<clipPath id="clip0_1_210">
<rect width="16" height="16" fill="white"/>
</clipPath>
</defs>
</svg>
