<svg width="16" height="16" viewBox="0 0 16 16" fill="none" xmlns="http://www.w3.org/2000/svg">
<g clip-path="url(#clip0_1_203)">
<path d="M8 0C3.58855 0 0 3.58893 0 8C0 8.08366 0.00114079 8.16656 0.00380264 8.24945C0.0296606 9.08908 0.185569 9.89676 0.451754 10.6527C1.54844 13.7644 4.51792 16 8 16C11.4828 16 14.4531 13.7629 15.5486 10.6501C15.8148 9.8941 15.9707 9.0868 15.9962 8.24717C15.9989 8.16504 16 8.0829 16 8C16 3.58893 12.4111 0 8 0ZM3.1916 9.83858C3.33172 9.7958 3.47307 9.75424 3.61696 9.71526C4.45719 9.48759 5.34062 9.3294 6.25736 9.24141L6.47993 12.918C4.9696 12.4501 3.7542 11.3051 3.1916 9.83858ZM8.0616 9.23966C7.46307 9.23966 6.97785 8.75445 6.97785 8.15591C6.97785 7.55737 7.46307 7.07216 8.0616 7.07216C8.66014 7.07216 9.14536 7.55737 9.14536 8.15591C9.14536 8.75445 8.66014 9.23966 8.0616 9.23966ZM9.52543 12.9163L9.74788 9.24153C10.6626 9.32944 11.5444 9.48721 12.3835 9.71427C12.5274 9.75313 12.6687 9.79466 12.8089 9.83736C12.2472 11.3029 11.0337 12.4473 9.52543 12.9163ZM12.6623 7.22126C11.1876 6.85788 9.61985 6.67364 8.00243 6.67364C6.38205 6.67364 4.81247 6.85837 3.33739 7.22266C3.18848 7.2594 3.04139 7.29853 2.89518 7.3388C2.89872 7.31142 2.90164 7.28389 2.90564 7.25662C3.26685 4.76889 5.41382 2.85198 8 2.85198C10.5858 2.85198 12.7324 4.76813 13.094 7.25506C13.098 7.28229 13.101 7.30986 13.1046 7.33724C12.9583 7.29701 12.8112 7.25791 12.6623 7.22126Z" fill="#777777"/>
</g>
<defs>
<clipPath id="clip0_1_203">
<rect width="16" height="16" fill="white"/>
</clipPath>
</defs>
</svg>
